# xmcd
#
# Track frame offsets:
#	150
#	16890
#	35210
#	49382
#	62998
#	78269
#	94659
#	111140
#	130563
#	145214
#	162683
#	184575
#	197529
#	220729
#	238914
#
# Disc length: 3396 seconds
# Revision: 0
# Processed by: cddbd v1.5.2PL0 Copyright (c) Steve Scherf et al.
# Submitted via: dBpowerAMP V12.0
#
DISCID=d50d420f
DTITLE=Various Artist - High, Wide and Handsome
DYEAR=2012
DGENRE=Country
TTITLE0=The Trishas - Mother of Invention
TTITLE1=The Trishas - Strangers
TTITLE2=The Trishas - Little Sweet Cigars
TTITLE3=The Trishas - Liars and Fools
TTITLE4=The Trishas - Cheater's Game
TTITLE5=The Trishas - Looking At Me
TTITLE6=The Trishas - Why
TTITLE7=The Trishas - Over Forgiving You
TTITLE8=The Trishas - One Down
TTITLE9=The Trishas - Cold Blooded Love
TTITLE10=The Trishas - Rainin' Inside
TTITLE11=The Trishas - The Fool
TTITLE12=The Trishas - John Wayne Cowboy
TTITLE13=The Trishas - Gold and Silver
TTITLE14=The Trishas with Raul Malo - A Far Cry From You
EXTD=
EXTT0=
EXTT1=
EXTT2=
EXTT3=
EXTT4=
EXTT5=
EXTT6=
EXTT7=
EXTT8=
EXTT9=
EXTT10=
EXTT11=
EXTT12=
EXTT13=
EXTT14=
PLAYORDER=
